<?xml version="1.0" encoding="utf-8"?>
<!-- Generator: Adobe Illustrator 27.0.1, SVG Export Plug-In . SVG Version: 6.00 Build 0)  -->
<svg version="1.1" id="Layer_1" xmlns="http://www.w3.org/2000/svg" xmlns:xlink="http://www.w3.org/1999/xlink" x="0px" y="0px"
	 viewBox="0 0 422 93" style="enable-background:new 0 0 422 93;" xml:space="preserve">
<g>
	<path d="M166.35,46.46c0-14.64,9.88-25.63,24.59-25.63c14.64,0,24.59,11,24.59,25.63c0,14.63-9.96,25.63-24.59,25.63
		C176.23,72.09,166.35,61.1,166.35,46.46z M209.15,46.46c0-11.59-7.13-20.13-18.2-20.13c-11.14,0-18.2,8.54-18.2,20.13
		c0,11.51,7.06,20.13,18.2,20.13C202.02,66.6,209.15,57.98,209.15,46.46z"/>
	<path d="M257.81,71.2l-4.38-11h-24.67l-4.38,11h-7.06l19.91-49.55h7.65l19.98,49.55H257.81z M241.09,28.04l-10.55,26.67h21.02
		L241.09,28.04z"/>
	<path d="M278.61,71.2V27.15h-15.68v-5.5h37.59v5.5h-15.75V71.2H278.61z"/>
	<path d="M308.7,71.2V21.65h6.17V71.2H308.7z"/>
	<path d="M361.53,71.2l-28.9-39.52V71.2h-6.17V21.65h6.32l28.53,38.71V21.65h6.17V71.2H361.53z"/>
	<path d="M377.05,46.46c0-15.38,11.37-25.63,25.48-25.63c8.77,0,14.86,3.86,19.24,9.29l-4.9,3.05c-3.12-4.01-8.4-6.84-14.34-6.84
		c-10.85,0-19.09,8.32-19.09,20.13c0,11.74,8.25,20.21,19.09,20.21c5.94,0,10.85-2.9,13.3-5.35v-10.1h-17.01v-5.5H422v17.9
		c-4.61,5.13-11.37,8.54-19.47,8.54C388.42,72.17,377.05,61.84,377.05,46.46z"/>
</g>
<path d="M13.89,31.82H0V20.68h40.49v11.14H26.67v38.41H13.89V31.82z"/>
<g>
	<path d="M65.9,53.59h-6.54v16.64H46.58V20.68H71.4c11,0,17.23,7.28,17.23,16.49c0,8.62-5.27,13.22-9.88,14.86l10.1,18.2H74.22
		L65.9,53.59z M69.46,31.82h-10.1v10.62h10.1c3.34,0,6.17-1.86,6.17-5.35C75.63,33.76,72.81,31.82,69.46,31.82z"/>
	<path d="M95.69,20.68h12.78v49.55H95.69V20.68z"/>
</g>
<g>
	<polygon points="135.53,55.75 135.53,70.23 122.75,70.23 122.75,20.68 135.53,20.68 135.53,41.04 151.06,20.28 119.83,0 
		119.83,19.33 119.83,20.68 119.83,70.23 119.83,70.94 119.83,93 151.81,70.15 138.87,51.59 	"/>
	<polygon points="161.32,26.93 147.27,43.86 162.27,63.37 189.85,45.46 	"/>
</g>
</svg>
